<svg width="470" height="470" viewBox="0 0 470 470" fill="none" xmlns="http://www.w3.org/2000/svg">
<path d="M235 470C321.985 470 392.5 399.485 392.5 312.5C392.5 225.515 321.985 155 235 155C148.015 155 77.5 225.515 77.5 312.5C77.5 399.485 148.015 470 235 470Z" fill="white"/>
<path d="M162.5 139.546V102.5C162.5 62.523 195.023 30 235 30C274.977 30 307.5 62.523 307.5 102.5V139.546C307.664 139.615 307.829 139.678 307.993 139.747C318.34 144.123 328.189 149.384 337.5 155.471V102.5C337.5 45.981 291.519 0 235 0C178.481 0 132.5 45.981 132.5 102.5V155.47C141.811 149.384 151.661 144.123 162.007 139.746C162.171 139.678 162.336 139.615 162.5 139.546Z" fill="white"/>
<path d="M210.92 361.855L201.81 370.407C193.931 377.797 181.073 377.797 173.176 370.407C169.392 366.851 167.316 362.132 167.316 357.102C167.316 352.071 169.41 347.37 173.176 343.796L206.696 312.398C213.639 305.893 226.716 296.3 236.231 305.234C240.602 309.328 247.655 309.31 252.008 305.182C256.343 301.053 256.324 294.374 251.935 290.28C235.753 275.102 211.82 277.912 190.973 297.445L157.471 328.878C149.427 336.406 145 346.45 145 357.119C145 367.805 149.427 377.831 157.471 385.36C165.755 393.114 176.61 397 187.502 397C198.394 397 209.267 393.114 217.533 385.36L226.661 376.808C231.033 372.714 231.051 366.053 226.716 361.924C222.345 357.795 215.292 357.778 210.92 361.855ZM312.529 239.835C295.116 223.546 270.798 222.661 254.708 237.753L243.357 248.404C238.986 252.498 238.949 259.16 243.284 263.288C247.618 267.417 254.671 267.434 259.061 263.34L270.431 252.707C278.751 244.883 289.68 248.127 296.824 254.806C300.608 258.362 302.702 263.08 302.702 268.111C302.702 273.141 300.608 277.86 296.824 281.399L261.045 314.896C244.68 330.214 237.02 323.032 233.733 319.961C229.361 315.867 222.308 315.885 217.973 320.013C213.639 324.142 213.657 330.821 218.029 334.897C225.541 341.923 234.118 345.41 243.1 345.41C254.084 345.41 265.71 340.188 276.767 329.815L312.547 296.317C320.555 288.771 325 278.745 325 268.076C325 257.408 320.555 247.381 312.529 239.835Z" fill="#0891B2"/>
</svg>
